# xmcd
#
# Track frame offsets: 
#        150
#        17002
#        45565
#
# Disc length: 1034 seconds
#
# Revision: 3
# Processed by: cddbd v1.5PL3 Copyright (c) Steve Scherf et al.
# Submitted via: ExactAudioCopy v0.95a4
#
DISCID=19040803
DTITLE=Versus DJ Taylor and Flow - Salam Aleikum
DYEAR=2000
DGENRE=Dance
TTITLE0=Fatima (Short Edit)
TTITLE1=Fatima (Main Mix)
TTITLE2=Fatima (Alternative Version)
EXTD=
EXTT0=
EXTT1=
EXTT2=
PLAYORDER=
